<?xml version="1.0" standalone="no"?>
<!DOCTYPE svg PUBLIC "-//W3C//DTD SVG 20010904//EN"
 "http://www.w3.org/TR/2001/REC-SVG-20010904/DTD/svg10.dtd">
<svg version="1.0" xmlns="http://www.w3.org/2000/svg"
 width="360.000000pt" height="360.000000pt" viewBox="0 0 360.000000 360.000000"
 preserveAspectRatio="xMidYMid meet">
<metadata>
Created by potrace 1.11, written by Peter Selinger 2001-2013
</metadata>
<g transform="translate(0.000000,360.000000) scale(0.100000,-0.100000)"
fill="#000000" stroke="none">
<path d="M1967 2262 c-218 -218 -397 -401 -397 -405 0 -4 38 -46 85 -92 l85
-85 400 400 c220 220 400 403 400 406 0 6 -166 174 -172 174 -2 0 -182 -179
-401 -398z"/>
<path d="M2410 1990 l-670 -670 -266 265 -265 266 -89 -91 -89 -91 182 -182
c100 -100 260 -260 354 -354 l173 -173 760 760 c418 418 760 762 760 764 0 6
-171 176 -176 176 -2 0 -305 -301 -674 -670z"/>
<path d="M402 1760 l-91 -89 355 -355 355 -355 89 89 90 90 -182 182 c-101
101 -260 260 -354 355 l-171 172 -91 -89z"/>
</g>
</svg>
