<svg viewBox="0 0 26 26" xmlns="http://www.w3.org/2000/svg"><path fill-rule="evenodd" clip-rule="evenodd" d="M20.583 3.25H5.417A2.173 2.173 0 003.25 5.415V13c0 1.192.975 2.167 2.167 2.167h15.166A2.173 2.173 0 0022.75 13V5.416a2.173 2.173 0 00-2.167-2.167zM5.417 10.832h3.39c.228.845.726 1.592 1.376 2.166H5.417v-2.166zm10.4 2.166h4.766v-2.166h-3.39c-.228.845-.726 1.592-1.376 2.166zm4.766-4.333h-5.416V9.75c0 1.16-1.008 2.167-2.167 2.167-1.16 0-2.167-1.007-2.167-2.167V8.666H5.417v-3.25h15.166v3.25zm-5.416 7.584h7.583v4.333a2.173 2.173 0 01-2.167 2.167H5.417a2.173 2.173 0 01-2.167-2.167V16.25h7.583v1.083c0 .509.206.975.52 1.354.401.487.997.813 1.647.813s1.246-.326 1.647-.813c.314-.38.52-.845.52-1.354V16.25zm-9.75 2.166h3.39c.016.069.042.133.067.194l.031.077c.26.737.704 1.387 1.278 1.896H5.417v-2.167zm10.4 2.167h4.766v-2.167h-3.39a1.265 1.265 0 01-.067.194 2.3 2.3 0 00-.031.077 4.373 4.373 0 01-1.278 1.896z"/></svg>
