<svg viewBox="0 0 26 26" xmlns="http://www.w3.org/2000/svg"><path fill-rule="evenodd" clip-rule="evenodd" d="M22.75 6.5v15.167a2.173 2.173 0 01-2.167 2.166H5.417a2.166 2.166 0 01-2.167-2.166L3.26 6.5c0-1.192.954-2.167 2.157-2.167H6.5V2.167h2.167v2.166h8.666V2.167H19.5v2.166h1.083c1.192 0 2.167.975 2.167 2.167zM5.417 8.667h15.166V6.5H5.417v2.167zm15.166 2.166v10.834H5.417V10.833h15.166z"/><path d="M12.623 13.904c0 .49-.148.908-.445 1.251-.298.344-.715.58-1.252.71v.031c.634.08 1.114.273 1.44.58.326.305.489.717.489 1.236 0 .755-.274 1.345-.822 1.767-.548.419-1.33.628-2.347.628-.853 0-1.608-.141-2.267-.424V18.27c.304.154.64.28 1.004.377.366.096.727.145 1.085.145.548 0 .953-.094 1.214-.28.262-.186.392-.485.392-.897 0-.369-.15-.63-.45-.784-.302-.154-.782-.23-1.44-.23h-.597v-1.274h.607c.61 0 1.053-.079 1.332-.236.283-.161.425-.435.425-.822 0-.594-.373-.892-1.117-.892-.258 0-.521.043-.79.13-.265.085-.56.234-.886.445l-.768-1.144c.716-.515 1.57-.773 2.562-.773.813 0 1.453.164 1.923.494.472.33.709.788.709 1.375zM17.42 20h-1.66v-4.544l.017-.746.026-.817a8.718 8.718 0 01-.574.542l-.903.726-.8-1 2.53-2.013h1.364V20z"/></svg>
