<svg viewBox="0 0 509.325 509.325" xmlns="http://www.w3.org/2000/svg"><path d="M478.663 0h-320c-16.569 0-30 13.431-30 30v207h-88c-22.091 0-40 17.909-40 40v80c0 22.091 17.909 40 40 40h88v85.778a10.001 10.001 0 0017.071 7.071l19.88-19.881 13.747 33.194c2.818 6.047 8.673 7.159 13.065 5.413l36.956-15.305c5.082-2.104 7.518-7.984 5.413-13.066l-13.747-33.195h28.115c8.694 0 13.436-10.479 7.071-17.071L223.294 397h37.368c22.091 0 40-17.909 40-40v-17h198c5.523 0 10-4.477 10-10V30c.001-16.569-13.431-30-29.999-30zm-330 30c0-5.514 4.486-10 10-10h320c5.514 0 10 4.486 10 10v50h-340zm57.419 397.011c-7.127 0-11.966 7.242-9.239 13.826l15.647 37.782-18.478 7.652-15.647-37.783c-2.767-6.392-11.09-8.327-16.311-3.245l-13.392 13.393V350.653l76.358 76.357h-18.938zM280.663 357c0 11.028-8.972 20-20 20h-57.368l-57.561-57.561c-6.394-6.246-17.071-1.794-17.071 7.071V377h-88c-11.028 0-20-8.972-20-20v-80c0-11.028 8.972-20 20-20h220c11.028 0 20 8.972 20 20zm20-37v-43c0-22.056-17.944-40-40-40h-112V100h340v220zm-112-270c0 5.523-4.477 10-10 10s-10-4.477-10-10 4.477-10 10-10c5.522 0 10 4.477 10 10zm45 0c0 5.523-4.477 10-10 10s-10-4.477-10-10 4.477-10 10-10c5.522 0 10 4.477 10 10zm45 0c0 5.523-4.477 10-10 10s-10-4.477-10-10 4.477-10 10-10c5.522 0 10 4.477 10 10zm-67 80c0 5.522-4.477 10-10 10h-13v15c0 5.51-4.49 10-10 10s-10-4.49-10-10v-25c0-5.522 4.477-10 10-10h23c5.523 0 10 4.478 10 10zm257 0v25c0 5.51-4.49 10-10 10s-10-4.49-10-10v-15h-13c-5.523 0-10-4.478-10-10s4.477-10 10-10h23c5.523 0 10 4.478 10 10zm-163 0c0 5.522-4.477 10-10 10h-49c-5.523 0-10-4.478-10-10s4.477-10 10-10h49c5.523 0 10 4.478 10 10zm95 0c0 5.522-4.477 10-10 10h-49c-5.523 0-10-4.478-10-10s4.477-10 10-10h49c5.523 0 10 4.478 10 10zm0 140c0 5.522-4.477 10-10 10h-49c-5.523 0-10-4.478-10-10s4.477-10 10-10h49c5.523 0 10 4.478 10 10zm68-25v25c0 5.522-4.477 10-10 10h-23c-5.523 0-10-4.478-10-10s4.477-10 10-10h13v-15c0-5.51 4.49-10 10-10 5.509 0 10 4.49 10 10zm0-45c0 5.51-4.49 10-10 10s-10-4.49-10-10 4.49-10 10-10c5.509 0 10 4.49 10 10zm-280 0c0 5.51-4.49 10-10 10s-10-4.49-10-10c0-5.521 4.49-10 10-10 5.509 0 10 4.479 10 10z"/></svg>
