<svg viewBox="0 0 26 26" xmlns="http://www.w3.org/2000/svg"><path clip-rule="evenodd" d="M16.055 4.333h4.528c1.192 0 2.167.975 2.167 2.166v15.167a2.173 2.173 0 01-2.167 2.167H5.417c-.152 0-.293-.011-.434-.033a2.175 2.175 0 01-1.56-1.289 2.223 2.223 0 01-.173-.845V6.5c0-.303.065-.585.173-.834a2.18 2.18 0 01.466-.693 2.17 2.17 0 011.094-.596c.141-.032.282-.043.434-.043h4.528C10.4 3.076 11.592 2.166 13 2.166c1.408 0 2.6.91 3.055 2.167zm1.918 4.961l1.527 1.539-8.667 8.667L6.5 15.166l1.527-1.527 2.806 2.795 7.14-7.14zM13 4.062c.444 0 .813.368.813.812a.818.818 0 01-.813.813.818.818 0 01-.813-.813c0-.444.369-.812.813-.812zM5.417 21.666h15.166V6.5H5.417v15.167z"/></svg>
