<svg viewBox="0 0 25 20" xmlns="http://www.w3.org/2000/svg"><path fill-rule="evenodd" clip-rule="evenodd" d="M14.296 4.294l-.854-1.024-3.071 2.563.854 1.023 3.071-2.562zm6.262-1.023l3.071 2.562-.854 1.024-3.072-2.563.855-1.023zm-3.225 4.126h-1v4l3.167 1.9.5-.82-2.667-1.58v-3.5zM17 4.73a6 6 0 100 12 6 6 0 000-12zm-4.667 6A4.672 4.672 0 0017 15.396a4.672 4.672 0 004.667-4.666A4.672 4.672 0 0017 6.063a4.672 4.672 0 00-4.667 4.667z"/><path d="M5.263 0v14.916l-3.779-3.769L0 12.632 7.368 20V0H5.263z"/></svg>
